# xmcd
# Track frame offsets:
# 150
# 17423
# 33814
# 54054
# 69531
# 89888
# 105414
# 122991
# 137689
# 159886
# 179879
# 198503
# 218962
# 236162
# 250963
#
# Disc length: 3560 seconds
# Revision: 0
# Processed by: cddbd v1.5.1PL0 Copyright (c) Steve Scherf et al.
# Submitted via: VisiTrax 2.9.10.228 - For more info visit www.synapsa.com
#
DISCID=d20de60f
DTITLE=Rogers, Kenny - CB90051
DYEAR=1900
DGENRE=Karaoke
TTITLE0=Gambler, The
TTITLE1=Lucille
TTITLE2=She Believes In Me
TTITLE3=Greatest, The
TTITLE4=Coward Of The County
TTITLE5=Daytime Friends
TTITLE6=Lady
TTITLE7=Ruby, Don't Take Your Love To Town
TTITLE8=Through The Years
TTITLE9=While The Feeling's Good
TTITLE10=You Decorated My Life
TTITLE11=Buried Treasure
TTITLE12=Crazy
TTITLE13=If You Want To Find Love
TTITLE14=Vows Go Unbroken, The
EXTD=
EXTT0=
EXTT1=
EXTT2=
EXTT3=
EXTT4=
EXTT5=
EXTT6=
EXTT7=
EXTT8=
EXTT9=
EXTT10=
EXTT11=
EXTT12=
EXTT13=
EXTT14=
PLAYORDER=
